ffmpeg started on 2025-05-28 at 21:53:22
Report written to "D:\Convert\FFMetrics\reports\ssim_report-6.txt"
Log level: 32
Command line:
ffmpeg -hide_banner -nostdin -i "G:\\\xc0\xed\xe8\xec\xe5\\\xce\xed\xe3\xee\xe8\xed\xe3\xe8\\!_36_\xce\xf1\xe5\xed\xfc_2024\\JamClub\\\xcc\xe5\xf5\xe0\xed\xe8\xf7\xe5\xf1\xea\xe8\xe5 \xf0\xf3\xea\xe8\\JamClub_Mecha_ude_TV_02_1080p_HEVC.mkv" -i "G:\\\xc0\xed\xe8\xec\xe5\\\xce\xed\xe3\xee\xe8\xed\xe3\xe8\\!_36_\xce\xf1\xe5\xed\xfc_2024\\JamClub\\\xcc\xe5\xf5\xe0\xed\xe8\xf7\xe5\xf1\xea\xe8\xe5 \xf0\xf3\xea\xe8\\JamClub_Mecha_ude_TV_02_1080p.mp4" -lavfi "[0:v]settb=AVTB,setpts=PTS-STARTPTS,format=pix_fmts=yuv420p10,fps=24000/1001,scale=1920:1080:flags=bicubic[main];[1:v]settb=AVTB,setpts=PTS-STARTPTS,format=pix_fmts=yuv420p,fps=24000/1001,scale=1920:1080:flags=bicubic[ref];[main][ref]ssim=eof_action=endall:stats_file='D\\:/Convert/FFMetrics/logs/ssim_logfile-6.txt'" -f null -
Input #0, matroska,webm, from 'G:\Аниме\Онгоинги\!_36_Осень_2024\JamClub\Механические руки\JamClub_Mecha_ude_TV_02_1080p_HEVC.mkv':
  Metadata:
    COMPATIBLE_BRANDS: isomiso2avc1mp41
    MAJOR_BRAND     : isom
    MINOR_VERSION   : 512
    ENCODER         : Lavf61.7.100
  Duration: 00:24:04.33, start: -0.001000, bitrate: 1189 kb/s
  Stream #0:0: Video: hevc (Main 10), yuv420p10le(tv, bt709, progressive), 1920x1080 [SAR 1:1 DAR 16:9], 23.98 fps, 23.98 tbr, 1k tbn (default)
      Metadata:
        HANDLER_NAME    : VideoHandler
        VENDOR_ID       : [0][0][0][0]
        ENCODER         : Lavc61.19.100 libx265
        BPS             : 991251
        DURATION        : 00:24:04.192708333
        NUMBER_OF_FRAMES: 34626
        NUMBER_OF_BYTES : 178944646
        _STATISTICS_WRITING_APP: mkvpropedit v66.0.0 ('Josie') 64-bit
        _STATISTICS_WRITING_DATE_UTC: 2025-05-28 14:31:51
        _STATISTICS_TAGS: BPS DURATION NUMBER_OF_FRAMES NUMBER_OF_BYTES
  Stream #0:1(eng): Audio: aac (LC), 48000 Hz, stereo, fltp (default)
      Metadata:
        HANDLER_NAME    : SoundHandler
        VENDOR_ID       : [0][0][0][0]
        ENCODER         : Lavc61.19.100 aac
        BPS             : 194415
        DURATION        : 00:24:04.291000000
        NUMBER_OF_FRAMES: 67702
        NUMBER_OF_BYTES : 35099076
        _STATISTICS_WRITING_APP: mkvpropedit v66.0.0 ('Josie') 64-bit
        _STATISTICS_WRITING_DATE_UTC: 2025-05-28 14:31:51
        _STATISTICS_TAGS: BPS DURATION NUMBER_OF_FRAMES NUMBER_OF_BYTES
Input #1, mov,mp4,m4a,3gp,3g2,mj2, from 'G:\Аниме\Онгоинги\!_36_Осень_2024\JamClub\Механические руки\JamClub_Mecha_ude_TV_02_1080p.mp4':
  Metadata:
    major_brand     : isom
    minor_version   : 512
    compatible_brands: isomiso2avc1mp41
    encoder         : Lavf60.16.100
  Duration: 00:24:04.31, start: 0.000000, bitrate: 3661 kb/s
  Stream #1:0[0x1](und): Video: h264 (High) (avc1 / 0x31637661), yuv420p(progressive), 1920x1080 [SAR 1:1 DAR 16:9], 3463 kb/s, 23.98 fps, 23.98 tbr, 90k tbn (default)
      Metadata:
        handler_name    : VideoHandler
        vendor_id       : [0][0][0][0]
  Stream #1:1[0x2](eng): Audio: aac (LC) (mp4a / 0x6134706D), 48000 Hz, stereo, fltp, 191 kb/s (default)
      Metadata:
        handler_name    : SoundHandler
        vendor_id       : [0][0][0][0]
Stream mapping:
  Stream #0:0 (hevc) -> settb:default
  Stream #1:0 (h264) -> settb:default
  ssim:default -> Stream #0:0 (wrapped_avframe)
  Stream #0:1 -> #0:1 (aac (native) -> pcm_s16le (native))
Output #0, null, to 'pipe:':
  Metadata:
    COMPATIBLE_BRANDS: isomiso2avc1mp41
    MAJOR_BRAND     : isom
    MINOR_VERSION   : 512
    encoder         : Lavf61.7.100
  Stream #0:0: Video: wrapped_avframe, yuv420p10le(tv, bt709, progressive), 1920x1080 [SAR 1:1 DAR 16:9], q=2-31, 200 kb/s, 23.98 fps, 23.98 tbn
      Metadata:
        encoder         : Lavc61.19.100 wrapped_avframe
  Stream #0:1(eng): Audio: pcm_s16le, 48000 Hz, stereo, s16, 1536 kb/s (default)
      Metadata:
        HANDLER_NAME    : SoundHandler
        VENDOR_ID       : [0][0][0][0]
        _STATISTICS_TAGS: BPS DURATION NUMBER_OF_FRAMES NUMBER_OF_BYTES
        BPS             : 194415
        DURATION        : 00:24:04.291000000
        NUMBER_OF_FRAMES: 67702
        NUMBER_OF_BYTES : 35099076
        _STATISTICS_WRITING_APP: mkvpropedit v66.0.0 ('Josie') 64-bit
        _STATISTICS_WRITING_DATE_UTC: 2025-05-28 14:31:51
        encoder         : Lavc61.19.100 pcm_s16le
frame=  112 fps=0.0 q=-0.0 size=N/A time=00:00:04.67 bitrate=N/A speed= 8.9x    frame=  275 fps=265 q=-0.0 size=N/A time=00:00:11.46 bitrate=N/A speed=  11x    frame=  475 fps=305 q=-0.0 size=N/A time=00:00:19.81 bitrate=N/A speed=12.7x    frame=  725 fps=352 q=-0.0 size=N/A time=00:00:30.23 bitrate=N/A speed=14.7x    frame= 1006 fps=389 q=-0.0 size=N/A time=00:00:41.95 bitrate=N/A speed=16.2x    frame= 1262 fps=408 q=-0.0 size=N/A time=00:00:52.63 bitrate=N/A speed=  17x    frame= 1511 fps=418 q=-0.0 size=N/A time=00:01:03.02 bitrate=N/A speed=17.4x    frame= 1731 fps=419 q=-0.0 size=N/A time=00:01:12.19 bitrate=N/A speed=17.5x    frame= 1913 fps=411 q=-0.0 size=N/A time=00:01:19.78 bitrate=N/A speed=17.2x    frame= 2076 fps=403 q=-0.0 size=N/A time=00:01:26.58 bitrate=N/A speed=16.8x    frame= 2308 fps=406 q=-0.0 size=N/A time=00:01:36.26 bitrate=N/A speed=  17x    frame= 2447 fps=395 q=-0.0 size=N/A time=00:01:42.06 bitrate=N/A speed=16.5x    frame= 2604 fps=388 q=-0.0 size=N/A time=00:01:48.60 bitrate=N/A speed=16.2x    frame= 2747 fps=381 q=-0.0 size=N/A time=00:01:54.57 bitrate=N/A speed=15.9x    frame= 2952 fps=381 q=-0.0 size=N/A time=00:02:03.12 bitrate=N/A speed=15.9x    frame= 3147 fps=381 q=-0.0 size=N/A time=00:02:11.25 bitrate=N/A speed=15.9x    frame= 3394 fps=387 q=-0.0 size=N/A time=00:02:21.55 bitrate=N/A speed=16.1x    frame= 3640 fps=392 q=-0.0 size=N/A time=00:02:31.81 bitrate=N/A speed=16.4x    frame= 3895 fps=397 q=-0.0 size=N/A time=00:02:42.45 bitrate=N/A speed=16.6x    frame= 4145 fps=402 q=-0.0 size=N/A time=00:02:52.88 bitrate=N/A speed=16.8x    frame= 4369 fps=403 q=-0.0 size=N/A time=00:03:02.22 bitrate=N/A speed=16.8x    frame= 4610 fps=407 q=-0.0 size=N/A time=00:03:12.27 bitrate=N/A speed=  17x    frame= 4880 fps=411 q=-0.0 size=N/A time=00:03:23.53 bitrate=N/A speed=17.2x    frame= 5126 fps=414 q=-0.0 size=N/A time=00:03:33.79 bitrate=N/A speed=17.3x    frame= 5369 fps=416 q=-0.0 size=N/A time=00:03:43.93 bitrate=N/A speed=17.4x    frame= 5658 fps=422 q=-0.0 size=N/A time=00:03:55.98 bitrate=N/A speed=17.6x    frame= 5901 fps=424 q=-0.0 size=N/A time=00:04:06.12 bitrate=N/A speed=17.7x    frame= 6124 fps=424 q=-0.0 size=N/A time=00:04:15.42 bitrate=N/A speed=17.7x    frame= 6391 fps=427 q=-0.0 size=N/A time=00:04:26.55 bitrate=N/A speed=17.8x    frame= 6651 fps=430 q=-0.0 size=N/A time=00:04:37.40 bitrate=N/A speed=17.9x    frame= 6896 fps=431 q=-0.0 size=N/A time=00:04:47.62 bitrate=N/A speed=  18x    frame= 7167 fps=434 q=-0.0 size=N/A time=00:04:58.92 bitrate=N/A speed=18.1x    frame= 7414 fps=435 q=-0.0 size=N/A time=00:05:09.22 bitrate=N/A speed=18.2x    frame= 7662 fps=437 q=-0.0 size=N/A time=00:05:19.56 bitrate=N/A speed=18.2x    frame= 7938 fps=440 q=-0.0 size=N/A time=00:05:31.08 bitrate=N/A speed=18.3x    frame= 8176 fps=440 q=-0.0 size=N/A time=00:05:41.00 bitrate=N/A speed=18.4x    frame= 8439 fps=442 q=-0.0 size=N/A time=00:05:51.97 bitrate=N/A speed=18.4x    frame= 8696 fps=444 q=-0.0 size=N/A time=00:06:02.69 bitrate=N/A speed=18.5x    frame= 8916 fps=443 q=-0.0 size=N/A time=00:06:11.87 bitrate=N/A speed=18.5x    frame= 9142 fps=443 q=-0.0 size=N/A time=00:06:21.29 bitrate=N/A speed=18.5x    frame= 9406 fps=445 q=-0.0 size=N/A time=00:06:32.30 bitrate=N/A speed=18.6x    frame= 9699 fps=448 q=-0.0 size=N/A time=00:06:44.52 bitrate=N/A speed=18.7x    frame= 9980 fps=450 q=-0.0 size=N/A time=00:06:56.24 bitrate=N/A speed=18.8x    frame=10247 fps=452 q=-0.0 size=N/A time=00:07:07.38 bitrate=N/A speed=18.8x    frame=10541 fps=454 q=-0.0 size=N/A time=00:07:19.64 bitrate=N/A speed=18.9x    frame=10810 fps=456 q=-0.0 size=N/A time=00:07:30.86 bitrate=N/A speed=  19x    frame=11089 fps=457 q=-0.0 size=N/A time=00:07:42.54 bitrate=N/A speed=19.1x    frame=11360 fps=459 q=-0.0 size=N/A time=00:07:53.80 bitrate=N/A speed=19.1x    frame=11636 fps=460 q=-0.0 size=N/A time=00:08:05.31 bitrate=N/A speed=19.2x    frame=11900 fps=461 q=-0.0 size=N/A time=00:08:16.32 bitrate=N/A speed=19.2x    frame=12161 fps=462 q=-0.0 size=N/A time=00:08:27.21 bitrate=N/A speed=19.3x    frame=12380 fps=462 q=-0.0 size=N/A time=00:08:36.34 bitrate=N/A speed=19.3x    frame=12591 fps=461 q=-0.0 size=N/A time=00:08:45.14 bitrate=N/A speed=19.2x    frame=12826 fps=460 q=-0.0 size=N/A time=00:08:54.95 bitrate=N/A speed=19.2x    frame=13047 fps=460 q=-0.0 size=N/A time=00:09:04.16 bitrate=N/A speed=19.2x    frame=13251 fps=459 q=-0.0 size=N/A time=00:09:12.67 bitrate=N/A speed=19.1x    frame=13535 fps=461 q=-0.0 size=N/A time=00:09:24.52 bitrate=N/A speed=19.2x    frame=13807 fps=462 q=-0.0 size=N/A time=00:09:35.86 bitrate=N/A speed=19.3x    frame=14051 fps=462 q=-0.0 size=N/A time=00:09:46.04 bitrate=N/A speed=19.3x    frame=14303 fps=462 q=-0.0 size=N/A time=00:09:56.55 bitrate=N/A speed=19.3x    frame=14567 fps=463 q=-0.0 size=N/A time=00:10:07.56 bitrate=N/A speed=19.3x    frame=14845 fps=464 q=-0.0 size=N/A time=00:10:19.16 bitrate=N/A speed=19.4x    frame=15098 fps=465 q=-0.0 size=N/A time=00:10:29.71 bitrate=N/A speed=19.4x    frame=15363 fps=465 q=-0.0 size=N/A time=00:10:40.76 bitrate=N/A speed=19.4x    frame=15640 fps=467 q=-0.0 size=N/A time=00:10:52.31 bitrate=N/A speed=19.5x    frame=15860 fps=466 q=-0.0 size=N/A time=00:11:01.49 bitrate=N/A speed=19.4x    frame=16112 fps=466 q=-0.0 size=N/A time=00:11:12.00 bitrate=N/A speed=19.4x    frame=16346 fps=466 q=-0.0 size=N/A time=00:11:21.76 bitrate=N/A speed=19.4x    frame=16612 fps=467 q=-0.0 size=N/A time=00:11:32.85 bitrate=N/A speed=19.5x    frame=16862 fps=467 q=-0.0 size=N/A time=00:11:43.28 bitrate=N/A speed=19.5x    frame=17122 fps=468 q=-0.0 size=N/A time=00:11:54.13 bitrate=N/A speed=19.5x    frame=17407 fps=469 q=-0.0 size=N/A time=00:12:06.01 bitrate=N/A speed=19.6x    frame=17694 fps=470 q=-0.0 size=N/A time=00:12:17.98 bitrate=N/A speed=19.6x    frame=17927 fps=470 q=-0.0 size=N/A time=00:12:27.70 bitrate=N/A speed=19.6x    frame=18161 fps=470 q=-0.0 size=N/A time=00:12:37.46 bitrate=N/A speed=19.6x    frame=18369 fps=469 q=-0.0 size=N/A time=00:12:46.14 bitrate=N/A speed=19.5x    frame=18576 fps=468 q=-0.0 size=N/A time=00:12:54.77 bitrate=N/A speed=19.5x    frame=18798 fps=467 q=-0.0 size=N/A time=00:13:04.03 bitrate=N/A speed=19.5x    frame=19013 fps=467 q=-0.0 size=N/A time=00:13:13.00 bitrate=N/A speed=19.5x    frame=19285 fps=467 q=-0.0 size=N/A time=00:13:24.34 bitrate=N/A speed=19.5x    frame=19498 fps=467 q=-0.0 size=N/A time=00:13:33.22 bitrate=N/A speed=19.5x    frame=19748 fps=467 q=-0.0 size=N/A time=00:13:43.65 bitrate=N/A speed=19.5x    frame=20026 fps=468 q=-0.0 size=N/A time=00:13:55.25 bitrate=N/A speed=19.5x    frame=20257 fps=468 q=-0.0 size=N/A time=00:14:04.88 bitrate=N/A speed=19.5x    frame=20535 fps=468 q=-0.0 size=N/A time=00:14:16.48 bitrate=N/A speed=19.5x    frame=20784 fps=468 q=-0.0 size=N/A time=00:14:26.86 bitrate=N/A speed=19.5x    frame=21040 fps=469 q=-0.0 size=N/A time=00:14:37.54 bitrate=N/A speed=19.6x    frame=21323 fps=470 q=-0.0 size=N/A time=00:14:49.34 bitrate=N/A speed=19.6x    frame=21593 fps=470 q=-0.0 size=N/A time=00:15:00.60 bitrate=N/A speed=19.6x    frame=21874 fps=471 q=-0.0 size=N/A time=00:15:12.32 bitrate=N/A speed=19.7x    frame=22134 fps=472 q=-0.0 size=N/A time=00:15:23.17 bitrate=N/A speed=19.7x    frame=22375 fps=471 q=-0.0 size=N/A time=00:15:33.22 bitrate=N/A speed=19.7x    frame=22628 fps=472 q=-0.0 size=N/A time=00:15:43.77 bitrate=N/A speed=19.7x    frame=22913 fps=473 q=-0.0 size=N/A time=00:15:55.66 bitrate=N/A speed=19.7x    frame=23162 fps=473 q=-0.0 size=N/A time=00:16:06.04 bitrate=N/A speed=19.7x    frame=23438 fps=473 q=-0.0 size=N/A time=00:16:17.55 bitrate=N/A speed=19.7x    frame=23698 fps=474 q=-0.0 size=N/A time=00:16:28.40 bitrate=N/A speed=19.8x    frame=23985 fps=474 q=-0.0 size=N/A time=00:16:40.37 bitrate=N/A speed=19.8x    frame=24206 fps=474 q=-0.0 size=N/A time=00:16:49.59 bitrate=N/A speed=19.8x    frame=24420 fps=473 q=-0.0 size=N/A time=00:16:58.51 bitrate=N/A speed=19.7x    frame=24705 fps=474 q=-0.0 size=N/A time=00:17:10.40 bitrate=N/A speed=19.8x    frame=24969 fps=475 q=-0.0 size=N/A time=00:17:21.41 bitrate=N/A speed=19.8x    frame=25234 fps=475 q=-0.0 size=N/A time=00:17:32.46 bitrate=N/A speed=19.8x    frame=25524 fps=476 q=-0.0 size=N/A time=00:17:44.56 bitrate=N/A speed=19.8x    frame=25767 fps=476 q=-0.0 size=N/A time=00:17:54.69 bitrate=N/A speed=19.8x    frame=25986 fps=475 q=-0.0 size=N/A time=00:18:03.83 bitrate=N/A speed=19.8x    frame=26193 fps=474 q=-0.0 size=N/A time=00:18:12.46 bitrate=N/A speed=19.8x    frame=26449 fps=475 q=-0.0 size=N/A time=00:18:23.14 bitrate=N/A speed=19.8x    frame=26742 fps=475 q=-0.0 size=N/A time=00:18:35.36 bitrate=N/A speed=19.8x    frame=26986 fps=476 q=-0.0 size=N/A time=00:18:45.54 bitrate=N/A speed=19.8x    frame=27236 fps=476 q=-0.0 size=N/A time=00:18:55.96 bitrate=N/A speed=19.8x    frame=27444 fps=475 q=-0.0 size=N/A time=00:19:04.64 bitrate=N/A speed=19.8x    frame=27676 fps=475 q=-0.0 size=N/A time=00:19:14.31 bitrate=N/A speed=19.8x    frame=27908 fps=474 q=-0.0 size=N/A time=00:19:23.99 bitrate=N/A speed=19.8x    frame=28115 fps=474 q=-0.0 size=N/A time=00:19:32.62 bitrate=N/A speed=19.8x    frame=28364 fps=474 q=-0.0 size=N/A time=00:19:43.01 bitrate=N/A speed=19.8x    frame=28602 fps=474 q=-0.0 size=N/A time=00:19:52.94 bitrate=N/A speed=19.8x    frame=28829 fps=474 q=-0.0 size=N/A time=00:20:02.40 bitrate=N/A speed=19.7x    frame=29062 fps=473 q=-0.0 size=N/A time=00:20:12.12 bitrate=N/A speed=19.7x    frame=29300 fps=473 q=-0.0 size=N/A time=00:20:22.05 bitrate=N/A speed=19.7x    frame=29537 fps=473 q=-0.0 size=N/A time=00:20:31.93 bitrate=N/A speed=19.7x    frame=29761 fps=473 q=-0.0 size=N/A time=00:20:41.28 bitrate=N/A speed=19.7x    frame=30023 fps=473 q=-0.0 size=N/A time=00:20:52.20 bitrate=N/A speed=19.7x    frame=30283 fps=473 q=-0.0 size=N/A time=00:21:03.05 bitrate=N/A speed=19.7x    frame=30546 fps=474 q=-0.0 size=N/A time=00:21:14.02 bitrate=N/A speed=19.8x    frame=30796 fps=474 q=-0.0 size=N/A time=00:21:24.44 bitrate=N/A speed=19.8x    frame=31048 fps=474 q=-0.0 size=N/A time=00:21:34.96 bitrate=N/A speed=19.8x    frame=31309 fps=474 q=-0.0 size=N/A time=00:21:45.84 bitrate=N/A speed=19.8x    frame=31559 fps=474 q=-0.0 size=N/A time=00:21:56.27 bitrate=N/A speed=19.8x    frame=31822 fps=474 q=-0.0 size=N/A time=00:22:07.24 bitrate=N/A speed=19.8x    frame=32093 fps=475 q=-0.0 size=N/A time=00:22:18.54 bitrate=N/A speed=19.8x    frame=32354 fps=475 q=-0.0 size=N/A time=00:22:29.43 bitrate=N/A speed=19.8x    frame=32622 fps=475 q=-0.0 size=N/A time=00:22:40.60 bitrate=N/A speed=19.8x    frame=32855 fps=475 q=-0.0 size=N/A time=00:22:50.32 bitrate=N/A speed=19.8x    frame=33144 fps=476 q=-0.0 size=N/A time=00:23:02.38 bitrate=N/A speed=19.8x    frame=33421 fps=476 q=-0.0 size=N/A time=00:23:13.93 bitrate=N/A speed=19.9x    frame=33706 fps=477 q=-0.0 size=N/A time=00:23:25.82 bitrate=N/A speed=19.9x    frame=33978 fps=477 q=-0.0 size=N/A time=00:23:37.16 bitrate=N/A speed=19.9x    frame=34244 fps=477 q=-0.0 size=N/A time=00:23:48.26 bitrate=N/A speed=19.9x    frame=34505 fps=478 q=-0.0 size=N/A time=00:23:59.14 bitrate=N/A speed=19.9x    [Parsed_ssim_10 @ 000002225aed6c80] SSIM Y:0.993192 (21.669695) U:0.994523 (22.614480) V:0.994382 (22.504389) All:0.993612 (21.946403)
[out#0/null @ 000002224ea106c0] video:14878KiB audio:270808KiB subtitle:0KiB other streams:0KiB global headers:0KiB muxing overhead: unknown
frame=34626 fps=478 q=-0.0 Lsize=N/A time=00:24:04.19 bitrate=N/A speed=19.9x    
